<svg width="30" height="29" viewBox="0 0 30 29" fill="none" xmlns="http://www.w3.org/2000/svg">
<path d="M26.7846 13.6984H18.7951C16.6677 13.6984 15.4432 12.474 15.4432 10.3465V2.69377C15.4432 1.43872 16.4075 0.535692 17.6778 0.535692C18.9482 0.535692 19.9124 1.42341 19.9124 2.69377V3.26007L19.5757 6.48953L21.8256 4.10187L25.2541 0.658136C25.6826 0.229583 26.2489 0 26.8458 0C28.2233 0 29.157 0.979552 29.157 2.35705C29.157 2.93865 28.8968 3.45904 28.4835 3.8876L25.0245 7.33133L22.6368 9.56593L25.9275 9.22921H26.7846C28.055 9.22921 28.958 10.1935 28.958 11.4638C28.958 12.7495 28.055 13.6984 26.7846 13.6984ZM11.5097 28.208C10.2394 28.208 9.29044 27.3203 9.29044 26.0499V25.4224L9.61185 22.2083L7.36194 24.5806L3.9029 28.0703C3.48965 28.4988 2.92335 28.7131 2.31113 28.7131C0.948941 28.7131 0 27.7489 0 26.3714C0 25.7898 0.260194 25.2541 0.688747 24.8408L4.16309 21.3665L6.55075 19.1319L3.27538 19.4533H2.35705C1.08669 19.4533 0.198971 18.5043 0.198971 17.234C0.198971 15.9483 1.08669 14.9994 2.35705 14.9994H10.4077C12.5199 14.9994 13.7596 16.2238 13.7596 18.336V26.0499C13.7596 27.3203 12.7954 28.208 11.5097 28.208Z" fill="white"/>
</svg>
