<svg width="34" height="34" viewBox="0 0 34 34" fill="none" xmlns="http://www.w3.org/2000/svg">
<path d="M15.5194 23.0655C14.0654 22.7747 12.9481 22.1471 12.1828 21.3819C8.49419 17.6932 8.5095 12.4894 12.1675 8.81604L17.3102 3.6734C20.9682 0.015385 26.172 7.94865e-05 29.876 3.6887C33.5646 7.37733 33.5646 12.5965 29.8913 16.2545L25.8659 20.2492C26.2486 18.8871 26.019 17.3259 25.4833 16.0862L27.4883 14.0811C29.8301 11.7394 29.8454 8.44871 27.473 6.09167C25.116 3.73462 21.8253 3.73462 19.4835 6.07636L14.5705 10.9894C12.2287 13.3312 12.2287 16.6372 14.5858 18.9942C15.397 19.7901 16.5908 20.3411 18.0907 20.4941L15.5194 23.0655ZM18.0448 10.4996C19.4835 10.7905 20.6161 11.4333 21.3814 12.1986C25.07 15.8872 25.0547 21.0911 21.3967 24.7491L16.2541 29.8917C12.5808 33.565 7.3922 33.5803 3.68827 29.8764C-0.000357615 26.1878 -0.000357615 20.9686 3.67296 17.3259L7.69831 13.3159C7.31567 14.678 7.52995 16.2545 8.06564 17.4943L6.07592 19.484C3.73418 21.8257 3.71888 25.1164 6.09123 27.4887C8.43297 29.8305 11.7237 29.8305 14.0807 27.4887L18.9938 22.5757C21.3355 20.2492 21.3355 16.9433 18.9785 14.5862C18.1673 13.775 16.9581 13.2393 15.4735 13.071L18.0448 10.4996Z" fill="white"/>
</svg>
