<svg width="29" height="29" viewBox="0 0 29 29" fill="none" xmlns="http://www.w3.org/2000/svg">
<path d="M26.3714 13.1627C25.101 13.1627 24.1368 12.275 24.1368 10.9893V10.4383L24.4735 7.20889L22.2236 9.59655L18.7951 13.0403C18.3666 13.4688 17.8003 13.6984 17.2034 13.6984C15.8259 13.6984 14.8922 12.7189 14.8922 11.3414C14.8922 10.7598 15.1524 10.2241 15.5657 9.81082L19.0247 6.36709L21.4124 4.13248L18.1217 4.4692H17.2646C15.9942 4.4692 15.1065 3.50496 15.1065 2.2346C15.1065 0.94894 15.9942 0 17.2646 0H25.2541C27.3815 0 28.606 1.22444 28.606 3.3519V10.9893C28.606 12.2597 27.6417 13.1627 26.3714 13.1627ZM11.3414 28.6213H3.3519C1.22444 28.6213 0 27.3815 0 25.2694V17.6166C0 16.3463 0.964246 15.4586 2.24991 15.4586C3.50496 15.4586 4.4692 16.3463 4.4692 17.6166V18.1829L4.13248 21.4124L6.38239 19.0247L9.81082 15.5657C10.2394 15.1371 10.8057 14.9229 11.4026 14.9229C12.7801 14.9229 13.7137 15.9024 13.7137 17.2646C13.7137 17.8615 13.4535 18.3819 13.0403 18.7951L9.58124 22.2389L7.19358 24.4735L10.4843 24.1521H11.3414C12.6117 24.1521 13.5148 25.101 13.5148 26.3867C13.5148 27.6723 12.6117 28.6213 11.3414 28.6213Z" fill="white"/>
</svg>
