<svg width="156" height="100" viewBox="0 0 156 100" fill="none" xmlns="http://www.w3.org/2000/svg">
<path d="M67.6407 86.1646C30.0422 86.1646 6 55.604 6 46.5351C6 37.5133 30.0422 7 67.6407 7C94.0446 7 113.411 21.5481 122.905 33.4984C122.81 33.4984 122.669 33.4984 122.574 33.4984C117.426 33.4984 112.655 36.1435 109.868 41.0087L90.8327 75.2063C89.5574 77.4735 88.8489 79.9297 88.8489 82.8582C82.425 84.9365 75.3399 86.1646 67.6407 86.1646ZM67.7352 68.9241C80.0633 68.9241 90.2659 58.6743 90.2659 46.5823C90.2659 34.2069 80.0633 24.2405 67.7352 24.2405C55.3598 24.2405 45.1572 34.1597 45.1572 46.5823C45.1572 58.6743 55.3598 68.9241 67.7352 68.9241ZM67.6407 56.1708C62.3032 56.1708 58.1466 51.9198 58.1466 46.6295C58.1466 41.3865 62.3032 36.9937 67.6407 36.9937C72.9782 36.9937 77.2765 41.3865 77.2765 46.6295C77.2765 51.9198 72.9782 56.1708 67.6407 56.1708Z" fill="white"/>
<path d="M104.158 89.8489C99.8595 89.8489 96.8838 86.3535 96.8838 82.4803C96.8838 81.2522 97.2144 80.0241 97.8757 78.8905L116.911 44.6929C118.375 42.095 120.737 40.8197 123.288 40.8197C125.791 40.8197 128.106 42.0006 129.617 44.6929L148.653 78.8905C149.314 80.0241 149.644 81.2522 149.644 82.4803C149.644 86.3535 146.621 89.8489 142.323 89.8489H104.158ZM123.24 71.333C125.649 71.333 127.444 69.6798 127.539 67.4126L127.917 56.5487C128.058 53.8564 125.98 52.0142 123.24 52.0142C120.454 52.0142 118.423 53.9036 118.564 56.5487L118.942 67.4126C119.084 69.6798 120.784 71.333 123.24 71.333ZM123.24 83.3305C126.263 83.3305 128.389 81.2995 128.389 78.5127C128.389 75.7258 126.169 73.7892 123.24 73.7892C120.265 73.7892 118.092 75.6786 118.092 78.5127C118.092 81.2995 120.218 83.3305 123.24 83.3305Z" fill="#FF7300"/>
</svg>
