<svg width="70" height="61" viewBox="0 0 70 61" fill="none" xmlns="http://www.w3.org/2000/svg">
<path d="M3.45703 31.9922C1.34766 31.9922 0 30.5859 0 28.7402C0 27.8027 0.46875 26.7773 1.37695 26.0449L30.2344 1.78711C31.6699 0.585938 33.2812 0 34.8633 0C36.4746 0 38.0859 0.585938 39.4922 1.78711L51.8262 12.1582V7.91016C51.8262 6.65039 52.7051 5.80078 53.9648 5.80078H58.7695C60.0293 5.80078 60.8789 6.65039 60.8789 7.91016V19.7461L68.3789 26.0449C69.2578 26.7773 69.7266 27.8027 69.7266 28.7402C69.7266 30.5859 68.3789 31.9922 66.2695 31.9922C65.3027 31.9922 64.3652 31.5234 63.5449 30.8203L36.3281 7.99805C35.8594 7.58789 35.3613 7.38281 34.8633 7.38281C34.3945 7.38281 33.8965 7.58789 33.4277 7.99805L6.18164 30.8203C5.39062 31.5234 4.42383 31.9922 3.45703 31.9922ZM9.4043 54.1406V34.043L33.0762 14.1797C34.1895 13.2715 35.5078 13.2422 36.6211 14.1797L60.293 34.043V54.1406C60.293 58.2715 57.5684 60.8789 53.2031 60.8789H16.4941C12.1289 60.8789 9.4043 58.2715 9.4043 54.1406ZM27.3047 54.375H42.4219V38.8184C42.4219 37.5 41.5723 36.6504 40.2539 36.6504H29.502C28.1836 36.6504 27.3047 37.5 27.3047 38.8184V54.375Z" fill="white"/>
</svg>
