<svg width="17" height="15" viewBox="0 0 17 15" fill="none" xmlns="http://www.w3.org/2000/svg">
<path d="M2.30546 14.9977C0.904262 14.9977 3.52412e-06 13.9468 3.52412e-06 12.6922C3.52412e-06 12.3093 0.0977612 11.9101 0.317716 11.5354L6.25649 1.1568C6.68826 0.399181 7.46217 3.71039e-06 8.23609 3.71039e-06C9.01815 3.71039e-06 9.77577 0.391034 10.2157 1.1568L16.1626 11.5354C16.3744 11.902 16.4722 12.3093 16.4722 12.6922C16.4722 13.9468 15.5679 14.9977 14.1749 14.9977H2.30546ZM8.24423 9.53138C8.75746 9.53138 9.05073 9.24625 9.07517 8.71673L9.20552 5.26262C9.22996 4.70866 8.82263 4.32578 8.23609 4.32578C7.64954 4.32578 7.25036 4.70866 7.2748 5.26262L7.397 8.72488C7.42144 9.24625 7.72286 9.53138 8.24423 9.53138ZM8.24423 12.293C8.83893 12.293 9.29513 11.9101 9.29513 11.3317C9.29513 10.7696 8.83893 10.3786 8.24423 10.3786C7.64954 10.3786 7.18519 10.7696 7.18519 11.3317C7.18519 11.902 7.65769 12.293 8.24423 12.293Z" fill="black"/>
</svg>
