<svg width="56" height="56" viewBox="0 0 56 56" fill="none" xmlns="http://www.w3.org/2000/svg">
<rect width="56" height="56" rx="28" fill="white"/>
<path d="M18.3292 38.9681C15.7772 38.9681 14.3874 37.5903 14.3874 35.0503V21.2361C14.3874 18.7201 15.7892 17.3542 18.0776 17.3542H20.9051C22.1751 17.3542 22.7742 17.5699 23.6368 18.2528L24.2239 18.7201C24.9188 19.2712 25.446 19.4629 26.3086 19.4629H36.7441C39.2961 19.4629 40.6859 20.8407 40.6859 23.3807V35.0503C40.6859 37.5903 39.3081 38.9681 36.9598 38.9681H18.3292ZM16.6878 23.7521H38.3496V23.0093C38.3496 22.2545 37.8104 21.7753 36.9358 21.7753H18.1136C17.227 21.7753 16.6878 22.2545 16.6878 23.0093V23.7521Z" fill="#0D0D0D"/>
</svg>
