<svg width="69" height="59" viewBox="0 0 69 59" fill="none" xmlns="http://www.w3.org/2000/svg">
<path d="M39.0527 58.2422C35.2441 58.2422 31.582 57.5098 28.2422 56.1328C31.2891 52.793 33.1641 48.3984 33.1641 43.623C33.1641 42.2461 32.9883 40.8691 32.6953 39.5801C34.6289 39.1406 36.7676 38.877 39.0527 38.877C46.3477 38.877 51.9727 41.4844 54.9902 44.5898C58.8867 40.6055 61.2598 35.1562 61.2598 29.1211C61.2598 16.8164 51.3574 6.91406 39.0527 6.91406C28.0371 6.91406 18.9844 14.8242 17.2266 25.3125C14.9707 24.873 12.334 24.9609 10.166 25.5469C11.9531 11.25 24.2578 0 39.0527 0C55.0195 0 68.1738 13.1543 68.1738 29.1211C68.1738 45.0586 55.0781 58.2422 39.0527 58.2422ZM39.0527 34.5117C33.6621 34.4824 29.4727 29.9121 29.4434 23.9941C29.4141 18.4277 33.6621 13.7109 39.0527 13.7109C44.4141 13.7109 48.6328 18.4277 48.6328 23.9941C48.6328 29.9121 44.4434 34.541 39.0527 34.5117ZM14.5312 58.1543C6.5918 58.1543 0 51.5918 0 43.623C0 35.6836 6.5918 29.1211 14.5312 29.1211C22.5 29.1211 29.0625 35.6836 29.0625 43.623C29.0625 51.5625 22.4414 58.1543 14.5312 58.1543ZM12.6562 51.5625C13.418 51.5625 14.1504 51.2402 14.5312 50.7129L22.5 39.8438C22.8223 39.4336 22.9395 38.9648 22.9395 38.5547C22.9395 37.2656 21.9141 36.2695 20.6543 36.2695C19.8633 36.2695 19.1602 36.6504 18.7207 37.2656L12.4805 45.9082L9.55078 42.627C9.14062 42.1582 8.55469 41.8945 7.85156 41.8945C6.65039 41.8945 5.53711 42.7441 5.53711 44.209C5.53711 44.7949 5.80078 45.3809 6.24023 45.8496L10.8105 50.8301C11.2793 51.3574 12.0117 51.5625 12.6562 51.5625Z" fill="#00FFC5"/>
</svg>
