<svg width="70" height="69" viewBox="0 0 70 69" fill="none" xmlns="http://www.w3.org/2000/svg">
<path d="M9.63867 47.666C3.36914 47.666 0 44.2969 0 38.0859V34.5117H6.76758V37.3242C6.76758 39.7559 7.99805 40.8984 10.3125 40.8984H14.2969V23.2031C14.2969 16.9922 17.666 13.6523 23.9062 13.6523H40.8984V10.3418C40.8984 7.91016 39.6387 6.76758 37.3535 6.76758H34.248V0H38.0273C44.2969 0 47.666 3.36914 47.666 9.55078V13.6523H52.2949C58.5352 13.6523 61.9336 17.0215 61.9336 23.2031V44.7363L55.166 37.9395V23.9941C55.166 21.5625 53.9062 20.4199 51.6211 20.4199H24.5801C22.2949 20.4199 21.0352 21.5625 21.0352 23.9941V50.9473C21.0352 53.3789 22.2949 54.5508 24.5801 54.5508H42.6855V61.2891H23.9062C17.666 61.2891 14.2969 57.9492 14.2969 51.7383V47.666H9.63867ZM17.6367 6.76758V0H30.0586V6.76758H17.6367ZM0 13.1543V9.55078C0 3.36914 3.36914 0 9.63867 0H13.418V6.76758H10.3125C7.99805 6.76758 6.76758 7.91016 6.76758 10.3418V13.1543H0ZM0 30.1172V17.5488H6.76758V30.1172H0ZM57.0117 60.1172L50.9766 66.1523C49.0723 68.0859 46.4941 67.1191 46.4941 64.8047V40.8984C46.4941 38.3496 49.1895 37.3535 50.9473 39.1113L67.793 55.9863C69.4043 57.627 68.2617 60.1172 65.5664 60.1172H57.0117Z" fill="#FF2E98"/>
</svg>
