<svg width="60" height="55" viewBox="0 0 60 55" fill="none" xmlns="http://www.w3.org/2000/svg">
<path d="M0.0585938 47.2266L0 40.8691C0 39.668 0.351562 38.877 1.55273 38.1738L7.00195 35.0391C8.14453 34.3652 9.11133 34.4531 10.1367 35.0391L15.6738 38.2324C15.7617 38.2617 15.8203 38.3203 15.8789 38.3496L26.7188 32.9004V18.0762L22.4121 15.5859C21.3574 14.9707 20.8301 14.2383 20.8301 12.832V6.62109C20.8301 5.21484 21.3574 4.48242 22.3828 3.89648L27.9199 0.761719C29.1504 0.0292969 30.4688 0 31.7578 0.732422L37.2656 3.89648C38.3496 4.51172 38.7891 5.18555 38.7891 6.62109V12.832C38.7891 14.2383 38.3203 14.9707 37.2363 15.5859L33.1055 17.9883V32.9004L43.8574 38.3203L43.9453 38.2617L49.4824 35.0684C50.5371 34.4824 51.4746 34.3945 52.6465 35.0684L58.0664 38.2031C59.2969 38.9062 59.6191 39.6973 59.6191 40.8984L59.5898 47.2559C59.5898 48.7207 58.916 49.8633 57.6562 50.5957L52.1777 53.7598C51.123 54.375 50.3027 54.4629 49.0723 53.7598L43.6816 50.6543C42.4512 49.9219 42.0703 49.1895 42.0703 47.9297V44.502L29.9121 38.3789L17.5781 44.5898L17.5488 47.9004C17.5488 49.1602 17.1973 49.8926 15.9375 50.5957L10.5762 53.7305C9.3457 54.4336 8.49609 54.3457 7.4707 53.7305L1.99219 50.5664C0.703125 49.834 0.0585938 48.6914 0.0585938 47.2266Z" fill="#3EFF00"/>
</svg>
