<svg width="59" height="59" viewBox="0 0 59 59" fill="none" xmlns="http://www.w3.org/2000/svg">
<path d="M29.1211 58.2422C13.0664 58.2422 0 45.2051 0 29.1211C0 13.0664 13.0664 0 29.1211 0C45.2051 0 58.2715 13.0664 58.2715 29.1211C58.2715 45.2051 45.2051 58.2422 29.1211 58.2422ZM29.1211 12.1582C23.8477 12.1582 19.6289 16.377 19.6289 21.6504C19.6289 25.4883 21.7969 28.916 25.3418 30.4102V43.8867C25.3418 44.3555 25.5176 44.8242 25.8691 45.1758L28.418 47.5488C28.8281 47.959 29.5898 48.0176 30.0293 47.5195L34.5117 43.0957C35.0098 42.5977 34.9805 41.8066 34.5117 41.2793L32.168 38.9648L35.5371 35.5957C36.0059 35.0977 36.0352 34.3066 35.5078 33.8086L32.3438 30.5859C36.416 28.7109 38.6426 25.4883 38.6426 21.6504C38.6426 16.4062 34.4531 12.1582 29.1211 12.1582ZM29.1211 21.0938C27.6562 21.0938 26.543 19.9512 26.543 18.4863C26.543 17.0215 27.6562 15.8789 29.1211 15.8789C30.6152 15.8789 31.7285 17.0215 31.7285 18.4863C31.7285 19.9512 30.6152 21.0938 29.1211 21.0938Z" fill="#FF677B"/>
</svg>
