<svg width="59" height="59" viewBox="0 0 59 59" fill="none" xmlns="http://www.w3.org/2000/svg">
<path d="M29.1211 58.2422C13.0664 58.2422 0 45.1758 0 29.1211C0 13.0371 13.0664 0 29.1211 0C45.2051 0 58.2715 13.0371 58.2715 29.1211C58.2715 45.1758 45.2051 58.2422 29.1211 58.2422ZM14.0332 23.4668C14.0332 24.1699 14.3262 24.8145 14.8535 25.3418L22.6465 33.252C23.0859 33.7207 23.7012 33.9551 24.3457 33.9551C25.6348 33.9551 26.748 32.8711 26.748 31.4941C26.748 30.9082 26.5137 30.2637 26.0156 29.8535L22.7637 26.9824L21.2402 25.8691L23.8477 25.957H32.3145C36.1816 25.957 38.9941 28.3301 38.9941 32.3438C38.9941 36.416 36.2402 38.9648 32.3145 38.9648H28.1543C26.5723 38.9648 25.4004 39.9023 25.4004 41.4551C25.4004 43.0664 26.5723 44.0332 28.1836 44.0332H32.3145C39.2578 44.0332 44.209 39.5215 44.209 32.4902C44.209 25.5176 39.2578 21.123 32.3145 21.123H23.8477L21.2109 21.2109L23.1445 19.7461L25.9863 17.0801C26.4551 16.6699 26.7188 16.0547 26.7188 15.4395C26.7188 14.0918 25.6055 12.9785 24.3164 12.9785C23.6719 12.9785 23.1152 13.2129 22.6465 13.7109L14.8535 21.5918C14.3555 22.1191 14.0332 22.7637 14.0332 23.4668Z" fill="#FF671F"/>
</svg>
