<svg width="49" height="69" viewBox="0 0 49 69" fill="none" xmlns="http://www.w3.org/2000/svg">
<path d="M15.791 14.9121C14.0332 14.9121 12.9785 13.7988 12.9785 11.9238V8.99414C12.9785 7.14844 14.0332 6.03516 15.791 6.03516H17.8418C18.0762 2.69531 20.8594 0 24.2871 0C27.7148 0 30.4688 2.69531 30.7031 6.03516H32.7832C34.541 6.03516 35.5957 7.14844 35.5957 8.99414V11.9238C35.5957 13.7988 34.541 14.9121 32.7832 14.9121H15.791ZM24.2871 8.75977C25.6641 8.75977 26.7773 7.61719 26.7773 6.26953C26.7773 4.89258 25.6641 3.7793 24.2871 3.7793C22.9102 3.7793 21.7969 4.89258 21.7969 6.26953C21.7969 7.61719 22.9102 8.75977 24.2871 8.75977ZM9.58008 68.5254C3.48633 68.5254 0 65.0098 0 58.8281V16.9922C0 10.7812 3.48633 7.26562 9.43359 7.26562H9.90234C9.72656 7.70508 9.60938 8.23242 9.60938 8.78906V11.9238C9.60938 15.6152 12.0996 18.252 15.791 18.252H32.7832C36.4453 18.252 38.9355 15.6152 38.9355 11.9238V8.78906C38.9355 8.23242 38.8477 7.70508 38.6426 7.26562H39.1406C45.0586 7.26562 48.5449 10.7812 48.5449 16.9922V58.8281C48.5449 65.0098 45.0586 68.5254 38.9648 68.5254H9.58008ZM18.5156 39.4629C18.9258 39.4629 19.2773 39.1113 19.3652 38.6719C19.7754 35.9766 20.127 34.4824 21.0645 33.5449C22.002 32.6367 23.4668 32.2559 26.1621 31.8457C26.6309 31.7871 26.9531 31.4355 26.9531 30.9961C26.9531 30.5859 26.6309 30.2344 26.1621 30.1465C23.4668 29.7656 22.002 29.3848 21.0645 28.4473C20.127 27.5098 19.7754 26.0449 19.3652 23.3203C19.2773 22.8809 18.9258 22.5586 18.5156 22.5586C18.0762 22.5586 17.7246 22.8809 17.666 23.3203C17.2559 26.0449 16.875 27.5098 15.9668 28.4473C15.0293 29.3848 13.5352 29.7656 10.8398 30.1465C10.4004 30.2344 10.0781 30.5859 10.0781 30.9961C10.0781 31.4355 10.4004 31.7871 10.8398 31.8457C13.5352 32.2559 15.0293 32.6367 15.9668 33.5449C16.875 34.4824 17.2559 35.9766 17.666 38.6719C17.7246 39.1113 18.0762 39.4629 18.5156 39.4629ZM12.1582 47.4316H36.4453C37.5293 47.4316 38.3789 46.582 38.3789 45.4688C38.3789 44.4434 37.5293 43.5938 36.4453 43.5938H12.1582C11.0449 43.5938 10.1953 44.4434 10.1953 45.4688C10.1953 46.582 11.0449 47.4316 12.1582 47.4316ZM12.1582 58.2715H26.4258C27.4805 58.2715 28.3594 57.3926 28.3594 56.3086C28.3594 55.2246 27.5098 54.375 26.4258 54.375H12.1582C11.0449 54.375 10.1953 55.2246 10.1953 56.3086C10.1953 57.3926 11.0449 58.2715 12.1582 58.2715Z" fill="#93ACCB"/>
</svg>
