<svg width="54" height="71" viewBox="0 0 54 71" fill="none" xmlns="http://www.w3.org/2000/svg">
<path d="M36.5625 25.957C36.5625 24.3457 37.8223 23.4668 39.1992 23.4668H42.5977C45.9961 23.4668 48.3984 21.2109 48.3984 17.7246C48.3984 14.4434 45.9375 12.5391 42.627 12.5391H37.998V16.8164C37.998 18.8965 36.0645 20.0977 34.3945 18.6914L26.4258 12.0996C24.9023 10.8398 24.9316 9.22852 26.4258 7.99805L34.3945 1.40625C36.0938 0 37.998 1.25977 37.998 3.31055V7.55859H42.627C48.9551 7.55859 53.4961 11.6602 53.4961 17.9297C53.4961 24.2871 48.9258 28.4473 42.5977 28.4473H39.2871C37.8223 28.4473 36.5625 27.5391 36.5625 25.957ZM10.0781 70.6641C4.54102 70.6641 0 66.123 0 60.5859C0 55.0195 4.54102 50.5078 10.0781 50.5078C14.4434 50.5078 18.1348 53.2324 19.541 57.0996H36.9434C43.0371 57.0996 46.4355 54.5508 46.4355 50.2734C46.4355 45.9668 42.6855 43.125 34.1895 42.2461L18.0176 40.5762C6.18164 39.3457 0 33.8672 0 25.4004C0 17.0801 6.38672 11.8359 16.2598 11.8359H22.0312C22.2656 13.1836 22.9688 14.502 24.2285 15.5273L27.9492 18.5742H16.2598C10.166 18.5742 6.76758 21.123 6.76758 25.4004C6.76758 29.707 10.4883 32.5488 18.9844 33.4277L35.1562 35.0977C46.9922 36.3281 53.1738 41.8066 53.1738 50.2734C53.1738 58.5938 46.8164 63.8379 36.9434 63.8379H19.6289C18.2812 67.793 14.502 70.6641 10.0781 70.6641Z" fill="#00BCFF"/>
</svg>
