<svg width="55" height="68" viewBox="0 0 55 68" fill="none" xmlns="http://www.w3.org/2000/svg">
<path d="M0 37.3828C0 36.709 0.263672 36.0645 0.791016 35.4199L27.627 2.63672C29.7949 0 33.1641 1.72852 31.9336 4.95117L23.2324 28.0371H39.8438C41.1621 28.0371 42.1289 28.9453 42.1289 30.2051C42.1289 30.9082 41.8652 31.5234 41.3379 32.1973L39.8438 33.9844C29.707 33.8086 21.0938 42.3047 21.0938 52.5586C21.0938 53.877 21.2402 55.166 21.5039 56.3965L14.502 64.9805C12.334 67.5879 8.96484 65.8887 10.2246 62.6367L18.8965 39.5508H2.28516C0.966797 39.5508 0 38.6426 0 37.3828ZM39.6973 67.0898C31.7578 67.0898 25.1953 60.5273 25.1953 52.5586C25.1953 44.6191 31.7578 38.0566 39.6973 38.0566C47.666 38.0566 54.2285 44.6191 54.2285 52.5586C54.2285 60.498 47.6074 67.0898 39.6973 67.0898ZM34.1895 60.8203C35.332 60.8203 36.0645 60.2344 36.3574 58.9746L37.0898 56.748H42.3633L43.0957 58.9746C43.418 60.2344 44.1504 60.8203 45.293 60.8203C46.6113 60.8203 47.4609 60 47.4609 58.7695C47.4609 58.3594 47.3438 57.8906 47.168 57.3047L43.1543 46.0254C42.5684 44.2383 41.3965 43.3887 39.6973 43.3887C38.0273 43.3887 36.9141 44.2383 36.3281 46.0254L32.3145 57.3047C32.1094 57.8906 32.0215 58.3594 32.0215 58.7695C32.0215 60 32.8711 60.8203 34.1895 60.8203ZM38.0273 53.4082L39.6973 47.7246H39.7852L41.4551 53.4082H38.0273Z" fill="#9F49ED"/>
</svg>
