<svg width="67" height="63" viewBox="0 0 67 63" fill="none" xmlns="http://www.w3.org/2000/svg">
<path d="M0 26.5723V24.5801C0 21.5625 1.93359 19.541 5.00977 19.541H10.0195L20.5371 1.81641C21.4746 0.234375 23.2324 0 24.6094 0.732422C26.0156 1.49414 26.748 3.13477 25.7812 4.80469L17.2852 19.541H49.5703L41.0742 4.80469C40.1367 3.13477 40.8398 1.49414 42.2754 0.732422C43.6523 0.0292969 45.4102 0.263672 46.3184 1.81641L56.8359 19.541H61.8164C64.8633 19.541 66.8555 21.5625 66.8555 24.5801V26.5723C66.8555 29.5898 64.8633 31.5527 61.8164 31.5527H5.00977C1.96289 31.5527 0 29.5898 0 26.5723ZM18.6914 62.373C11.543 62.373 9.4043 58.0664 8.55469 53.8477L4.80469 35.6836H62.0801L58.3301 53.8477C57.4512 58.0664 55.3125 62.373 48.1641 62.373H18.6914ZM46.0254 57.0703C47.1973 57.2461 48.1641 56.6016 48.3691 55.4883L50.6836 42.6562C50.8887 41.543 50.1562 40.6055 48.9258 40.4004C47.7246 40.2246 46.7578 40.8691 46.5527 41.9531L44.2969 54.8438C44.0918 55.957 44.7656 56.8359 46.0254 57.0703ZM20.8301 57.0703C22.0898 56.8359 22.7637 55.957 22.5879 54.8438L20.3027 41.9531C20.0977 40.8691 19.1309 40.2246 17.9297 40.4004C16.6992 40.6055 15.9668 41.5137 16.1719 42.627L18.4863 55.4883C18.6914 56.6016 19.5996 57.2461 20.8301 57.0703ZM29.2969 57.0117C30.498 56.9531 31.3184 56.1035 31.2598 54.9609L30.4102 42.3047C30.3223 41.1621 29.4727 40.3711 28.2129 40.4883C27.0117 40.5469 26.1914 41.3672 26.2793 42.5391L27.0996 55.1953C27.1875 56.3086 28.0957 57.0703 29.2969 57.0117ZM37.6172 57.0117C38.8184 57.0703 39.6973 56.3086 39.7852 55.1953L40.6348 42.5391C40.6934 41.3672 39.873 40.5469 38.6719 40.4883C37.4414 40.3711 36.5625 41.1621 36.4746 42.3047L35.6543 54.9609C35.5664 56.1035 36.3867 56.9531 37.6172 57.0117Z" fill="#FFC800"/>
</svg>
