<svg width="65" height="62" viewBox="0 0 65 62" fill="none" xmlns="http://www.w3.org/2000/svg">
<path d="M12.627 60.0586C11.1328 58.916 10.8105 57.041 11.6309 54.6387L17.1973 38.1152L2.98828 27.9199C0.9375 26.4551 0 24.7559 0.644531 22.9395C1.23047 21.1523 2.92969 20.3027 5.47852 20.3027H22.8809L28.1836 3.80859C28.9746 1.34766 30.293 0 32.1973 0C34.0723 0 35.3906 1.34766 36.1816 3.80859L41.4844 20.3027H58.8867C61.4355 20.3027 63.1348 21.1523 63.75 22.9395C64.3359 24.7559 63.457 26.4551 61.377 27.9199L47.168 38.1152L52.7344 54.6387C53.5547 57.041 53.2324 58.916 51.7383 60.0586C50.2148 61.2305 48.3398 60.8789 46.2598 59.3262L32.1973 48.9844L18.1055 59.3262C16.0254 60.8789 14.1504 61.2305 12.627 60.0586Z" fill="#00BCFF"/>
</svg>
