<svg width="69" height="63" viewBox="0 0 69 63" fill="none" xmlns="http://www.w3.org/2000/svg">
<path d="M31.2891 59.9707V31.6992C21.3867 30.3516 14.9414 22.3535 14.9414 12.3926C14.9414 9.19922 15.4688 5.88867 17.0215 2.63672C17.9004 0.849609 20.0391 0.498047 21.4746 1.96289L27.2168 7.82227L32.1094 1.49414C33.252 0 35.332 0 36.4746 1.49414L41.3672 7.82227L47.1094 1.96289C48.5449 0.498047 50.7129 0.849609 51.5918 2.63672C53.1152 5.85938 53.6719 9.16992 53.6719 12.3926C53.6719 22.3535 47.1973 30.3516 37.3242 31.6992V52.4121C42.627 43.1543 52.5586 36.8555 65.127 36.8555C67.5 36.8555 68.4961 38.4082 67.7051 40.6055C63.1348 53.6133 49.3066 62.8125 34.3066 62.8125C32.6074 62.8125 31.2891 61.6113 31.2891 59.9707ZM26.8945 46.875V59.9707C26.8945 60.7031 27.0117 61.4355 27.2168 62.0801C14.9121 59.7949 4.57031 51.5039 0.820312 40.6055C0 38.4082 1.02539 36.8555 3.36914 36.8555C13.1543 36.8555 21.3281 40.752 26.8945 46.875Z" fill="#3EFF00"/>
</svg>
