<svg width="51" height="56" viewBox="0 0 51 56" fill="none" xmlns="http://www.w3.org/2000/svg">
<path d="M3.16406 55.6348C1.43555 55.6348 0 54.1992 0 52.4707V6.5625C0 4.01367 1.17188 2.60742 3.19336 1.66992C5.625 0.556641 7.82227 0 11.8945 0C21.7383 0 29.1797 5.06836 38.6719 5.06836C42.7734 5.06836 45.1758 4.13086 46.9922 4.13086C49.2188 4.13086 50.7715 5.5957 50.7715 7.79297V34.8047C50.7715 37.4121 49.6875 39.1992 47.6367 40.166C45.4395 41.1914 43.0957 41.8066 38.877 41.8066C29.1211 41.8066 21.9434 36.7383 12.0996 36.7383C9.19922 36.7383 7.14844 37.3828 6.32812 37.6465V52.4707C6.32812 54.2578 4.89258 55.6348 3.16406 55.6348Z" fill="#00FFC5"/>
</svg>
