<svg width="88" height="50" viewBox="0 0 88 50" fill="none" xmlns="http://www.w3.org/2000/svg">
<path d="M37.8516 47.959C15.3223 47.959 0 29.5898 0 23.9648C0 18.3691 15.3516 0 37.8516 0C53.9941 0 66.2695 9.22852 71.9824 16.5234C71.6895 16.4355 71.3965 16.377 71.0742 16.377C68.2031 16.377 65.5078 17.8711 64.0137 20.5664L52.2656 41.6016C51.5918 42.832 51.1816 44.0039 51.1816 45.791C47.1387 47.1387 42.6855 47.959 37.8516 47.959ZM37.8809 38.7891C46.0547 38.7891 52.7344 32.0801 52.7344 23.9941C52.7344 15.8203 46.0547 9.19922 37.8809 9.19922C29.707 9.19922 23.0273 15.791 23.0273 23.9941C23.0273 32.0801 29.707 38.7891 37.8809 38.7891ZM37.8516 29.7363C34.6582 29.7363 32.1094 27.1582 32.1094 23.9941C32.1094 20.8008 34.6582 18.1934 37.8516 18.1934C41.0742 18.1934 43.6523 20.8008 43.6523 23.9941C43.6523 27.1582 41.0742 29.7363 37.8516 29.7363ZM59.502 49.6289C57.0703 49.6289 55.459 47.7832 55.459 45.5859C55.459 44.9121 55.6641 44.2676 56.0156 43.623L67.793 22.5586C68.5547 21.1523 69.9023 20.4785 71.2793 20.4785C72.627 20.4785 73.9453 21.1523 74.7363 22.5586L86.5137 43.623C86.8652 44.2676 87.041 44.9121 87.041 45.5859C87.041 47.7832 85.4297 49.6289 83.0273 49.6289H59.502ZM71.25 38.6719C72.4219 38.6719 73.3008 37.8516 73.3301 36.7383L73.5645 29.4141C73.623 28.0664 72.627 27.1289 71.25 27.1289C69.873 27.1289 68.9062 28.0957 68.9355 29.4141L69.1699 36.7383C69.2285 37.8516 70.0781 38.6719 71.25 38.6719ZM71.25 45.5273C72.7734 45.5273 73.9453 44.4141 73.9453 42.9492C73.9453 41.5137 72.7734 40.4004 71.25 40.4004C69.7559 40.4004 68.584 41.4844 68.584 42.9492C68.584 44.4141 69.7559 45.5273 71.25 45.5273Z" fill="#FFC800"/>
</svg>
