<svg width="49" height="69" viewBox="0 0 49 69" fill="none" xmlns="http://www.w3.org/2000/svg">
<path d="M15.791 14.9121C14.0332 14.9121 12.9785 13.7988 12.9785 11.9238V8.99414C12.9785 7.14844 14.0332 6.03516 15.791 6.03516H17.8418C18.0762 2.69531 20.8594 0 24.2871 0C27.7148 0 30.4688 2.69531 30.7031 6.03516H32.7832C34.541 6.03516 35.5957 7.14844 35.5957 8.99414V11.9238C35.5957 13.7988 34.541 14.9121 32.7832 14.9121H15.791ZM24.2871 8.75977C25.6641 8.75977 26.7773 7.61719 26.7773 6.26953C26.7773 4.89258 25.6641 3.7793 24.2871 3.7793C22.9102 3.7793 21.7969 4.89258 21.7969 6.26953C21.7969 7.61719 22.9102 8.75977 24.2871 8.75977ZM9.58008 68.5254C3.48633 68.5254 0 65.0098 0 58.8281V16.9922C0 10.7812 3.48633 7.26562 9.43359 7.26562H9.90234C9.72656 7.70508 9.60938 8.23242 9.60938 8.78906V11.9238C9.60938 15.6152 12.0996 18.252 15.791 18.252H32.7832C36.4453 18.252 38.9355 15.6152 38.9355 11.9238V8.78906C38.9355 8.23242 38.8477 7.70508 38.6426 7.26562H39.1406C45.0586 7.26562 48.5449 10.7812 48.5449 16.9922V58.8281C48.5449 65.0098 45.0586 68.5254 38.9648 68.5254H9.58008ZM23.6719 38.7012C25.1367 38.7012 26.7773 37.6465 26.7773 35.4785L34.3652 29.9414C34.7168 30.1172 35.1562 30.2051 35.5957 30.2051C37.3535 30.2051 38.7012 28.7988 38.7012 27.1289C38.7012 25.4004 37.3535 23.9941 35.5957 23.9941C33.7793 23.9941 32.3145 25.6348 32.6074 27.5977L25.2832 32.959C24.8145 32.666 24.2578 32.4902 23.6719 32.4902C22.9395 32.4902 22.3242 32.7539 21.8262 33.1641L16.0254 30.0879C16.1133 28.2422 14.707 26.8359 12.9492 26.8359C11.2207 26.8359 9.87305 28.2422 9.87305 29.9414C9.87305 31.6406 11.2207 33.0469 12.9492 33.0469C13.5352 33.0469 14.0918 32.8711 14.5898 32.5488L20.625 35.8008C20.7129 37.5879 22.1777 38.7012 23.6719 38.7012ZM12.1582 47.5195H36.4453C37.5293 47.5195 38.3789 46.6699 38.3789 45.5566C38.3789 44.502 37.5293 43.6523 36.4453 43.6523H12.1582C11.0449 43.6523 10.1953 44.502 10.1953 45.5566C10.1953 46.6699 11.0449 47.5195 12.1582 47.5195ZM12.1582 58.3301H26.4258C27.4805 58.3301 28.3594 57.4512 28.3594 56.3672C28.3594 55.3125 27.5098 54.4629 26.4258 54.4629H12.1582C11.0449 54.4629 10.1953 55.3125 10.1953 56.3672C10.1953 57.4512 11.0449 58.3301 12.1582 58.3301Z" fill="#3EFF00"/>
</svg>
