<svg width="60" height="62" viewBox="0 0 60 62" fill="none" xmlns="http://www.w3.org/2000/svg">
<path d="M14.7949 41.6895C14.8535 34.8633 16.582 30.4102 20.5664 25.166C25.0195 19.248 30.7617 12.3633 35.127 3.95508C36.4746 1.34766 37.7051 0 39.873 0C42.5391 0 44.4727 1.9043 44.4727 4.86328C44.4727 10.1953 39.5508 17.4316 39.5508 21.2109C39.5508 23.0273 41.0449 24.1992 43.3887 24.1992H53.7598C56.9238 24.1992 59.3848 26.7188 59.3848 29.8828C59.3848 31.5234 58.8574 32.9883 57.9199 33.8379C57.5977 34.1016 57.5391 34.3359 57.8613 34.6289C58.5938 35.4492 59.0039 36.8555 59.0039 38.3203C59.0039 40.2832 58.0957 42.041 56.748 42.9199C56.4258 43.1543 56.3672 43.418 56.5723 43.7402C57.1875 44.6191 57.5391 45.8203 57.5391 47.0801C57.5391 49.3652 56.1914 51.1523 54.2285 52.1484C53.9941 52.2656 53.9648 52.4707 54.1113 52.7637C54.4336 53.4082 54.6973 54.2285 54.6973 55.2539C54.6973 58.1543 52.5293 59.9121 49.7754 60.5859C48.0469 60.9961 45.1172 61.2598 41.4258 61.2598H37.4414C23.6719 61.2012 14.7363 52.8809 14.7949 41.6895ZM0 41.9238C0 32.5488 5.21484 25.3125 12.0703 25.3125H15.7031C12.7441 29.3848 10.4883 34.5996 10.459 41.6309C10.4004 48.4277 12.832 54.375 17.9004 58.4473H13.1543C5.6543 58.4473 0 51.0645 0 41.9238Z" fill="#FF2E98"/>
</svg>
