<svg width="59" height="59" viewBox="0 0 59 59" fill="none" xmlns="http://www.w3.org/2000/svg">
<path d="M29.1211 58.2422C13.0664 58.2422 0 45.1758 0 29.1211C0 13.0371 13.0664 0 29.1211 0C45.2051 0 58.2715 13.0371 58.2715 29.1211C58.2715 45.1758 45.2051 58.2422 29.1211 58.2422ZM29.1504 44.2676C30.0293 44.2676 30.8789 43.9746 31.7578 43.125L41.3965 33.8672C41.9824 33.2812 42.3047 32.666 42.3047 31.8164C42.3047 30.2051 40.9277 29.0625 39.4336 29.0625C38.584 29.0625 37.8223 29.4141 37.2656 30.0293L33.6035 33.8965L32.2266 35.8887L32.4609 31.6699V17.2266C32.4609 15.4688 30.9961 13.9746 29.1504 13.9746C27.3047 13.9746 25.8398 15.4688 25.8398 17.2266V31.6699L26.0742 35.8887L24.6973 33.8965L21.0352 30.0293C20.4785 29.4141 19.6875 29.0625 18.8672 29.0625C17.3438 29.0625 15.9961 30.2051 15.9961 31.8164C15.9961 32.666 16.3184 33.2812 16.9043 33.8672L26.543 43.125C27.4219 43.9746 28.2715 44.2676 29.1504 44.2676Z" fill="#5361FF"/>
</svg>
