<svg width="49" height="62" viewBox="0 0 49 62" fill="none" xmlns="http://www.w3.org/2000/svg">
<path d="M22.8223 61.7871C9.11133 61.7871 0 53.877 0 41.9824C0 31.4941 4.92188 28.6816 4.92188 22.1484C4.92188 20.5957 4.7168 19.2773 4.7168 18.252C4.7168 16.5527 5.74219 15.5273 7.26562 15.5273C9.60938 15.5273 12.1289 17.1973 13.916 20.8594C13.9453 20.5664 13.9453 20.2734 13.9453 19.9805C13.916 14.8242 10.957 10.6348 7.35352 6.29883C6.67969 5.47852 6.26953 4.51172 6.26953 3.60352C6.26953 1.25977 8.37891 0 11.543 0C26.4844 0 48.3105 10.6641 48.3105 36.0352C48.3105 51.5039 38.1152 61.7871 22.8223 61.7871ZM23.5254 52.2363C29.7656 52.2363 33.2227 47.7832 33.2227 42.2168C33.2227 36.4746 29.9414 30.7031 24.082 28.0957C23.6133 27.8906 23.1738 28.1543 23.291 28.7109C23.8184 32.6953 23.4961 36.416 22.1191 38.7598C21.5039 37.0312 20.7422 35.6543 19.5703 34.541C19.1602 34.1895 18.75 34.4238 18.6914 34.8633C18.2812 38.4668 15 39.9023 15 44.6191C15 49.1895 18.3691 52.2363 23.5254 52.2363Z" fill="#FF671F"/>
</svg>
