<svg width="52" height="62" viewBox="0 0 52 62" fill="none" xmlns="http://www.w3.org/2000/svg">
<path d="M5.30273 52.5293C2.02148 52.5293 0 50.5957 0 47.1973V46.6992C0 39.668 7.29492 32.4609 10.6055 29.1797C12.4805 27.3047 12.3926 25.1074 10.6055 23.291C7.29492 20.0098 0 12.8613 0 5.77148V5.33203C0 1.96289 2.02148 0 5.30273 0H28.6523C31.9336 0 33.9551 1.96289 33.9551 5.33203V5.77148C33.9551 12.8613 26.6602 20.0098 23.3496 23.291C21.5625 25.1074 21.4746 27.3047 23.3496 29.1797C24.7852 30.6152 26.9531 32.7539 28.916 35.2734C25.8105 36.0059 22.998 37.2949 20.5957 38.877L18.9844 37.2363C18.3691 36.6211 18.252 36.5039 18.252 35.5078V24.4336C18.252 22.9395 18.5742 22.0898 19.6582 21.0938C21.2988 19.6582 23.6426 17.5488 25.166 15.8789C26.0156 14.9707 25.6348 13.7695 24.4043 13.7695H9.55078C8.32031 13.7695 7.91016 14.9707 8.78906 15.8789C10.3125 17.5488 12.6562 19.6582 14.2969 21.0938C15.3809 22.0898 15.7031 22.9395 15.7031 24.4336V35.5078C15.7031 36.5039 15.5859 36.6211 14.9707 37.2363L7.06055 44.9707C6.15234 45.8789 6.5625 47.4609 7.91016 47.4609H12.9785C12.5684 48.3984 12.3633 49.248 12.3633 50.0098C12.3633 50.7715 12.5684 51.6504 12.9785 52.5293H5.30273ZM34.1895 61.2012C23.6719 61.2012 16.4941 52.6172 16.4941 50.0098C16.4941 47.373 23.6426 38.8184 34.1895 38.8184C44.7949 38.8184 51.8555 47.373 51.8555 50.0098C51.8555 52.6172 44.8242 61.2012 34.1895 61.2012ZM34.1895 57.1582C38.1445 57.1582 41.3672 53.877 41.3672 50.0098C41.3672 46.0254 38.1445 42.8613 34.1895 42.8613C30.2344 42.8613 26.9824 46.0254 26.9824 50.0098C26.9824 53.877 30.2344 57.1582 34.1895 57.1582ZM34.2188 53.1445C32.4609 53.1445 31.0547 51.709 31.0547 50.0098C31.0547 48.3105 32.4609 46.875 34.2188 46.875C35.8887 46.875 37.3242 48.3105 37.3242 50.0098C37.3242 51.709 35.8887 53.1445 34.2188 53.1445Z" fill="#00BCFF"/>
</svg>
