<svg width="59" height="59" viewBox="0 0 59 59" fill="none" xmlns="http://www.w3.org/2000/svg">
<path d="M29.1211 58.2715C13.0664 58.2715 0 45.2051 0 29.1504C0 13.0664 13.0664 0 29.1211 0C45.2051 0 58.2715 13.0664 58.2715 29.1504C58.2715 45.2051 45.2051 58.2715 29.1211 58.2715ZM46.875 26.2793H44.2383C42.8906 19.1602 36.6504 13.7695 29.1211 13.7695C25.8105 13.7695 22.7051 14.8535 20.3906 16.5527C18.7207 17.666 18.6328 19.3652 19.3945 20.5078C20.0977 21.5332 21.6211 22.0312 23.2617 20.9473C24.873 19.7754 26.8652 19.0137 29.1211 19.0137C33.7207 19.0137 37.5879 22.0605 38.7891 26.2793H36.7383C35.2441 26.2793 34.7754 27.8027 35.6836 28.9746L40.2539 35.0977C41.0742 36.2402 42.5684 36.2988 43.4473 35.0977L47.9297 28.9746C48.8379 27.8027 48.3691 26.2793 46.875 26.2793ZM11.3965 31.9922H14.0332C15.3516 39.1113 21.6211 44.502 29.1211 44.502C32.4609 44.502 35.5371 43.418 37.8809 41.7188C39.5508 40.6055 39.6387 38.9062 38.877 37.793C38.1738 36.7383 36.6504 36.2402 35.0098 37.3242C33.3691 38.4961 31.4062 39.2578 29.1211 39.2578C24.5508 39.2578 20.6836 36.2109 19.4824 31.9922H21.5039C23.0273 31.9922 23.4961 30.4688 22.5879 29.2969L18.0176 23.1738C17.1973 22.0312 15.7031 21.9727 14.8242 23.1738L10.3418 29.2969C9.43359 30.4688 9.90234 31.9922 11.3965 31.9922Z" fill="#9F49ED"/>
</svg>
