<svg width="59" height="59" viewBox="0 0 59 59" fill="none" xmlns="http://www.w3.org/2000/svg">
<path d="M29.1211 58.2422C13.0664 58.2422 0 45.2051 0 29.1211C0 13.0664 13.0664 0 29.1211 0C45.2051 0 58.2715 13.0664 58.2715 29.1211C58.2715 45.2051 45.2051 58.2422 29.1211 58.2422ZM16.2598 37.1191L17.4316 44.6191C17.5781 45.5859 18.0176 46.1719 18.9258 46.1719C19.834 46.1719 20.5078 45.498 20.3613 44.4141L19.3359 37.6465C19.1895 36.8262 19.4531 36.3867 20.332 36.0938C20.625 36.0059 20.918 35.9473 21.1816 35.8594C21.0645 36.2402 21.0059 36.7383 21.0059 37.2363C21.0059 42.2168 24.7559 46.9043 29.1504 46.9043C33.5156 46.9043 37.2656 42.2168 37.2656 37.2363C37.2656 36.7383 37.2363 36.2402 37.0898 35.8594C37.3828 35.9473 37.6758 36.0059 37.9688 36.0938C38.8477 36.3867 39.1113 36.8262 38.9648 37.6465L37.9395 44.4141C37.7637 45.498 38.4668 46.1719 39.375 46.1719C40.2832 46.1719 40.7227 45.5859 40.8691 44.6191L42.041 37.1191C42.3633 35.0977 41.543 33.9844 39.3457 33.4277L32.7539 31.9629C33.1934 31.7578 33.6914 31.2598 33.9258 30.5566L38.4668 30.0293C40.6055 29.7949 41.6016 28.5059 41.6016 26.3379V21.3281C41.6016 20.4199 41.0449 19.8633 40.1074 19.8633C39.1992 19.8633 38.6719 20.4199 38.6719 21.3281V25.7227C38.6719 26.9238 38.0273 27.2754 36.9727 27.3926L34.043 27.7441C33.9258 27.3047 33.6035 26.8066 33.2812 26.5723C35.8301 26.1035 37.0898 24.5215 37.0898 22.207C37.0898 20.4785 36.5332 18.8672 35.5664 17.5781L35.7715 17.4316C37.4121 16.2598 37.7344 14.5898 36.6504 12.6855L35.8594 11.2793C35.5078 10.6348 35.127 10.3711 34.5117 10.3711C33.7793 10.3711 33.2227 10.8984 33.2227 11.6309C33.2227 11.9531 33.252 12.1582 33.457 12.4805L34.1309 13.5938C34.541 14.2969 34.5996 14.9707 34.0723 15.3809L33.7207 15.6738C32.373 14.7656 30.7324 14.2383 29.1504 14.2383C27.5684 14.2383 25.9277 14.7656 24.5801 15.6738L24.1992 15.3809C23.7012 14.9707 23.7598 14.2969 24.1699 13.5938L24.8438 12.4805C25.0488 12.1582 25.0781 11.9531 25.0781 11.6309C25.0781 10.8984 24.5215 10.3711 23.7598 10.3711C23.1738 10.3711 22.7637 10.6348 22.4121 11.2793L21.6504 12.6855C20.5957 14.6191 20.8887 16.2598 22.5293 17.4316L22.7344 17.5781C21.7383 18.8672 21.2109 20.4785 21.2109 22.207C21.2109 24.5215 22.4707 26.1035 25.0195 26.5723C24.6973 26.8066 24.375 27.2754 24.2578 27.7441L21.3281 27.3926C20.2734 27.3047 19.5996 26.9238 19.5996 25.7227V21.3281C19.5996 20.4199 19.1016 19.8633 18.1934 19.8633C17.2559 19.8633 16.6992 20.4199 16.6992 21.3281V26.3379C16.6992 28.5059 17.6953 29.7949 19.834 30.0293L24.375 30.5566C24.6094 31.2305 25.0781 31.7578 25.5469 31.9629L18.9551 33.4277C16.7285 33.9551 15.9375 35.0977 16.2598 37.1191Z" fill="#FF2E98"/>
</svg>
