<svg width="58" height="63" viewBox="0 0 58 63" fill="none" xmlns="http://www.w3.org/2000/svg">
<path d="M4.13086 49.1602C1.31836 47.6367 0 45.9375 0 42.0703V19.0723C0 16.0254 1.14258 14.0332 3.83789 12.5977L23.1152 1.93359C26.6309 0 30.498 0 34.0137 1.93359L53.291 12.5977C55.9863 14.0332 57.1289 16.0254 57.1289 19.0723V42.0703C57.1289 45.9375 55.8105 47.6367 52.9688 49.1602L30.8789 61.2891C29.3848 62.1094 27.7148 62.1094 26.25 61.2891L4.13086 49.1602ZM41.5137 20.2148L47.8418 16.6992L31.3184 7.55859C29.4434 6.50391 27.6562 6.5332 25.7812 7.55859L22.207 9.55078L41.5137 20.2148ZM28.5645 27.334L35.2148 23.6426L15.9082 12.9785L9.28711 16.6992L28.5645 27.334ZM7.82227 44.0918L25.4883 53.9355V32.7539L5.91797 21.9141V41.1328C5.91797 42.4805 6.41602 43.3301 7.82227 44.0918ZM49.3066 44.0918C50.7129 43.3301 51.2109 42.4805 51.2109 41.1328V21.9141L31.6406 32.7539V53.9355L49.3066 44.0918Z" fill="#3EFF00"/>
</svg>
