<svg width="60" height="54" viewBox="0 0 60 54" fill="none" xmlns="http://www.w3.org/2000/svg">
<path d="M8.29102 53.9355C3.25195 53.9355 0 50.1562 0 45.6445C0 44.2676 0.351562 42.832 1.14258 41.4844L22.5 4.16016C24.0527 1.43555 26.8359 0 29.6191 0C32.4316 0 35.1562 1.40625 36.7383 4.16016L58.125 41.4844C58.8867 42.8027 59.2383 44.2676 59.2383 45.6445C59.2383 50.1562 55.9863 53.9355 50.9766 53.9355H8.29102ZM29.6484 34.2773C31.4941 34.2773 32.5488 33.252 32.6367 31.3477L33.1055 18.9258C33.1934 16.9336 31.7285 15.5566 29.6191 15.5566C27.5098 15.5566 26.0742 16.9336 26.1621 18.9258L26.6016 31.377C26.6895 33.252 27.7734 34.2773 29.6484 34.2773ZM29.6484 44.209C31.7871 44.209 33.4277 42.832 33.4277 40.752C33.4277 38.7305 31.7871 37.3242 29.6484 37.3242C27.5098 37.3242 25.8398 38.7305 25.8398 40.752C25.8398 42.8027 27.5391 44.209 29.6484 44.209Z" fill="#FF671F"/>
</svg>
