<svg width="58" height="60" viewBox="0 0 58 60" fill="none" xmlns="http://www.w3.org/2000/svg">
<path d="M49.7754 50.127C41.6016 58.3301 29.9707 59.1504 21.0059 50.1562L1.37695 30.5566C0 29.1797 0 27.041 1.37695 25.6641C2.7832 24.2871 4.89258 24.2871 6.26953 25.6641L18.5156 37.9395C18.7207 37.1777 18.9258 36.3867 19.248 35.5957L1.66992 18.0176C0.292969 16.6699 0.263672 14.502 1.66992 13.125C3.04688 11.748 5.18555 11.748 6.5625 13.125L22.793 29.3262C23.2324 28.7402 23.7012 28.1543 24.1699 27.5684L6.5332 9.96094C5.15625 8.58398 5.15625 6.44531 6.5332 5.03906C7.93945 3.69141 10.0195 3.69141 11.4258 5.03906L29.2676 22.8809C29.9121 22.4707 30.5566 22.1191 31.2012 21.8262L15.6738 6.29883C14.2676 4.89258 14.2676 2.75391 15.6738 1.37695C17.0508 0 19.1602 0 20.5664 1.40625L39.6387 20.4492C33.0176 27.9785 35.332 35.0098 38.8184 38.7012C39.5508 39.4922 40.7812 39.4922 41.5137 38.7305C42.2754 37.998 42.3047 36.8262 41.5723 36.0645C38.4375 32.666 38.6133 27.2754 42.5977 22.9102C43.0664 22.3535 43.1543 21.9434 42.8027 21.0059L39.5215 12.2168C38.6426 9.78516 38.8184 7.99805 40.459 6.73828C41.8945 5.6543 43.6523 5.88867 44.8242 7.38281C45.8203 8.67188 47.6074 12.2461 49.043 15C51.1816 19.1016 54.6094 25.5469 55.4883 31.1133C57.1582 38.3496 55.4883 44.4434 49.7754 50.127Z" fill="#93ACCB"/>
</svg>
